<svg xmlns="http://www.w3.org/2000/svg" width="115" height="35" viewBox="0 0 115 35"><style>.st0{fill:#fff}</style><path class="st0" d="M71.9 3.3c0-1.8 1.5-3.3 3.3-3.3 1.8 0 3.3 1.5 3.3 3.3S77 6.6 75.2 6.6c-1.8 0-3.3-1.4-3.3-3.3zm22.9 5.8c-2.4 0-4.4 2-5.6 3.4V9.3h-7.5v1.5c1.8 0 2.2.9 2.2 1.7v10.2c-.7.7-2.8 2.5-4.3 2.5-1.3 0-1.3-1-1.3-1.6V9.3h-7.6v1.5c1.2 0 2.1.4 2.1 1.6v10.9c0 1.2-.3 5.2 4 5.2 3.1 0 5.7-1.9 7.1-3.2v2.9h5.4V15.6c.5-.8 1.6-2.3 2.4-2.3 1 0 .5 2.5 3.2 2.5 1.8 0 3.3-1.4 3.3-3.3v-.2c0-1.8-1.4-3.2-3.2-3.2h-.2zM4.6 6.6c1.8 0 3.3-1.5 3.3-3.3C7.9 1.5 6.4 0 4.6 0 2.7 0 1.2 1.5 1.2 3.3c0 1.9 1.5 3.3 3.4 3.3zm65.2 12c0 6.1-4.4 9.9-8.3 9.9-3.5 0-4.6-2.5-4.7-2.8V31.9c0 1.2.9 1.6 2.1 1.6V35h-9.7v-1.5c1.2 0 2.2-.4 2.2-1.6V17.2c0-2.2.1-5.5-2-5.5-.6 0-1.2.2-1.7.5 0 .2.1.4.1.5 0 1.9-1.3 2.7-2.5 2.7s-2.6-.8-2.6-2.7c0-.8-.4-1.4-1.5-1.4s-2.5.5-2.5 2.1c0 2.8 9.1 4.1 9.1 9.4 0 4.1-4.2 5.6-8.1 5.6-3.2 0-5.1-1.1-5.8-2.5-1.2 1.1-3.1 2.5-5.3 2.5-2.8 0-4-2.2-4-4.9v-8.4c0-1.8-.6-3-2.3-3-2.6 0-3.7 4-3.7 4v12.1h-5.4v-2.9c-1.4 1.3-4 3.2-7.1 3.2-4.2 0-3.9-4-3.9-5.2V12.4c0-1.1-1-1.5-2.2-1.5V9.3h7.6v14.3c0 .6 0 1.6 1.3 1.6 1.6 0 3.5-1.7 4.3-2.4V12.6c0-.8-.3-1.7-2.2-1.7V9.3h7.5v3.1s1.7-3.3 5.5-3.3c3.5 0 5.9 2.3 5.9 6.2v8.5s-.1 1.4 1.1 1.4c.8-.1 1.6-.4 2.3-1 .1-3 3.7-2.8 3.7-2.5 0 .3.3 3.7 2.8 3.8 1 0 2.2-.5 2.2-1.8 0-2.8-8.7-4-8.7-9 0-3.7 3.8-5.6 7.6-5.6 2.1 0 4.1.4 5.4 1.2 1.2-.8 2.6-1.2 4.1-1.2 3.8 0 5.2 2.3 5.7 3.6 1.1-2.3 3.5-3.7 6-3.7 4.6.1 7.7 3.5 7.7 9.6zm-5.4-.1c0-3.1-.9-6.7-3.5-6.7-2.1 0-4.1 2.4-4.1 6.8 0 4.1 1.6 6.8 3.8 6.8 2.7 0 3.8-4 3.8-6.9zm50.6-1.3c0 1.5-.1 2.7-.1 2.7h-11.4s-.3 5.6 4.4 5.6c2.6 0 4.4-2.1 4.4-2.1l1.8 1.6c-1.7 2.2-4.3 3.5-7 3.5-6.3 0-9.1-4.2-9.1-9.3 0-3.8 1.7-10 8.8-10.1 7.2-.1 8.2 6.3 8.2 8.1zm-8.2-5.8c-3.7 0-3.3 6.1-3.3 6.1h6.3c-.1 0 .6-6.1-3-6.1z"/></svg>